<svg xmlns="http://www.w3.org/2000/svg" viewBox="0 0 512 512" width="512" height="512">
  <defs>
    <linearGradient id="bg" x1="0" y1="0" x2="1" y2="1">
      <stop offset="0%" stop-color="#4F46E5"/>
      <stop offset="55%" stop-color="#4338CA"/>
      <stop offset="100%" stop-color="#1E1B4B"/>
    </linearGradient>
    <radialGradient id="bloom" cx="30%" cy="22%" r="70%">
      <stop offset="0%" stop-color="#818CF8" stop-opacity="0.55"/>
      <stop offset="100%" stop-color="#818CF8" stop-opacity="0"/>
    </radialGradient>
  </defs>
  <rect width="512" height="512" rx="114" fill="url(#bg)"/>
  <rect width="512" height="512" rx="114" fill="url(#bloom)"/>
  <path fill="#FFFFFF" d="M136 112h240a56 56 0 0 1 56 56v142a56 56 0 0 1-56 56H258l-74 62a12 12 0 0 1-20-9v-53h-28a56 56 0 0 1-56-56V168a56 56 0 0 1 56-56z"/>
  <g fill="#312E81">
    <circle cx="176" cy="239" r="30"/>
    <circle cx="256" cy="239" r="30" fill="#6366F1"/>
    <circle cx="336" cy="239" r="30"/>
  </g>
</svg>
